<svg width="161" height="20" viewBox="0 0 161 20" fill="none" xmlns="http://www.w3.org/2000/svg">
<g clip-path="url(#clip0_9848_4754)">
<path d="M48.1575 16.8217V3.14334H61.1403V5.56277H50.9097V8.97284H60.0584V11.3923H50.9097V16.8217H48.1575Z" fill="#171717"/>
<path d="M65.5312 3.12109H62.8739V5.56275H65.5312V3.12109Z" fill="#171717"/>
<path d="M65.5312 6.80106H62.8739V16.8217H65.5312V6.80106Z" fill="#171717"/>
<path d="M75.1734 9.50624C74.7178 9.39194 74.509 9.35383 73.9776 9.35383C71.7758 9.35383 70.3143 10.2492 70.3143 12.5543V16.8217H67.657V6.80105H70.3143V8.57276C71.1684 7.25826 72.4401 6.7439 74.0725 6.7439C74.528 6.7439 74.8886 6.80105 75.1734 6.87725V9.50624Z" fill="#171717"/>
<path d="M84.9737 13.0306L87.2325 14.0022C86.5681 15.6596 84.5372 17.0312 81.8989 17.0312C78.4634 17.0312 75.9958 14.9166 75.9958 11.8114C75.9958 8.70611 78.4254 6.61053 81.8799 6.61053C85.3344 6.61053 87.4033 8.85851 87.4033 11.7161V12.5543H78.5583C78.8809 14.0022 80.1906 14.8595 81.8989 14.8595C83.3794 14.8595 84.5182 14.1355 84.9737 13.0306ZM78.6532 10.7445H84.7839C84.6321 9.81104 83.5122 8.74421 81.785 8.74421C80.3235 8.74421 79.0707 9.43003 78.6532 10.7445Z" fill="#171717"/>
<path d="M91.617 16.8217H88.9597V3.14334H91.617V8.02031C92.3003 7.25828 93.61 6.61056 95.3562 6.61056C98.7728 6.61056 100.785 8.97284 100.785 11.8114C100.785 14.6499 98.7728 17.0313 95.3562 17.0313C93.61 17.0313 92.3003 16.3835 91.617 15.6215V16.8217ZM91.5031 11.8876C91.5031 13.5831 92.9836 14.8595 94.8817 14.8595C96.7798 14.8595 98.2413 13.7736 98.2413 11.8114C98.2413 9.84917 96.6849 8.78233 94.8817 8.78233C92.9836 8.78233 91.5031 10.0397 91.5031 11.7542V11.8876Z" fill="#171717"/>
<path d="M110.838 13.0306L113.097 14.0022C112.433 15.6596 110.402 17.0312 107.763 17.0312C104.328 17.0312 101.86 14.9166 101.86 11.8114C101.86 8.70611 104.29 6.61053 107.744 6.61053C111.199 6.61053 113.268 8.85851 113.268 11.7161V12.5543H104.423C104.745 14.0022 106.055 14.8595 107.763 14.8595C109.244 14.8595 110.383 14.1355 110.838 13.0306ZM104.518 10.7445H110.648C110.496 9.81104 109.377 8.74421 107.649 8.74421C106.188 8.74421 104.935 9.43003 104.518 10.7445Z" fill="#171717"/>
<path d="M114.824 6.80104H117.481V8.05838C118.203 7.23921 119.455 6.61053 121.126 6.61053C123.821 6.61053 125.472 8.45845 125.472 11.2398V16.8217H122.815V11.8685C122.815 10.154 121.961 9.01092 120.253 9.01092C118.544 9.01092 117.481 10.1159 117.481 11.9066V16.8217H114.824V6.80104Z" fill="#171717"/>
<path d="M132.4 17.0313C128.984 17.0313 126.972 14.669 126.972 11.8114C126.972 8.95379 128.984 6.61056 132.4 6.61056C134.147 6.61056 135.456 7.25828 136.14 8.02031V3.14334H138.797V16.8217H136.14V15.6215C135.456 16.3835 134.147 17.0313 132.4 17.0313ZM132.875 8.78233C131.072 8.78233 129.515 9.86822 129.515 11.8114C129.515 13.7545 131.072 14.8595 132.875 14.8595C134.773 14.8595 136.253 13.5831 136.253 11.8876V11.7542C136.253 10.0397 134.773 8.78233 132.875 8.78233Z" fill="#171717"/>
<path d="M149.331 13.0306L151.59 14.0022C150.926 15.6596 148.895 17.0312 146.256 17.0312C142.821 17.0312 140.353 14.9166 140.353 11.8114C140.353 8.70611 142.783 6.61053 146.237 6.61053C149.692 6.61053 151.761 8.85851 151.761 11.7161V12.5543H142.916C143.238 14.0022 144.548 14.8595 146.256 14.8595C147.737 14.8595 148.876 14.1355 149.331 13.0306ZM143.011 10.7445H149.141C148.99 9.81104 147.87 8.74421 146.142 8.74421C144.681 8.74421 143.428 9.43003 143.011 10.7445Z" fill="#171717"/>
<path d="M160.833 9.50624C160.378 9.39194 160.169 9.35383 159.638 9.35383C157.436 9.35383 155.974 10.2492 155.974 12.5543V16.8217H153.317V6.80105H155.974V8.57276C156.828 7.25826 158.1 6.7439 159.733 6.7439C160.188 6.7439 160.549 6.80105 160.833 6.87725V9.50624Z" fill="#171717"/>
<path d="M18.9332 4.82951C18.9333 7.43619 21.0435 9.55404 23.6407 9.55404H26.4401V10.446H23.6407C21.0435 10.446 18.9333 12.567 18.9332 15.1705V16.9718C19.8393 16.897 20.7444 16.7811 21.6318 16.6248C25.2824 15.9802 28.5786 14.7101 30.9006 13.1734C32.9599 11.8082 33.9946 10.0176 33.9947 8.23324C33.9947 6.53138 32.7893 5.57848 31.467 4.68628C34.8898 4.68628 36.6456 6.66442 36.9272 8.26782C37.2436 10.0808 36.051 12.0275 33.5613 13.7484C31.1381 15.4216 27.7688 16.701 24.0708 17.3519C22.3825 17.6496 20.5889 17.7945 18.9332 17.8202V20H18.0446V15.1705C18.0445 12.5638 15.9343 10.446 13.3371 10.446H10.5376V9.55404H13.3371C15.9343 9.55404 18.0445 7.43302 18.0446 4.82951V3.13273C17.1385 3.20761 16.2334 3.32343 15.346 3.47982C11.6954 4.12435 8.39917 5.39445 6.0772 6.93115C4.01779 8.29645 2.98312 10.0873 2.98312 11.8717C2.98313 13.5736 4.18847 14.5261 5.51079 15.4183C2.08793 15.4183 0.332134 13.4434 0.0505859 11.8368C-0.265722 10.0238 0.926915 8.07748 3.41647 6.35661C5.83968 4.68333 9.20895 3.40358 12.907 2.75269C14.5952 2.45502 16.3889 2.3097 18.0446 2.28394V0H18.9332V4.82951Z" fill="#171717"/>
</g>
<defs>
<clipPath id="clip0_9848_4754">
<rect width="160.833" height="20" fill="white"/>
</clipPath>
</defs>
</svg>
